<?xml version="1.0" encoding="UTF-8"?>
<!-- Created with Inkscape (http://www.inkscape.org/) -->
<svg width="146.47mm" height="26.08mm" version="1.1" viewBox="0 0 146.47 26.08" xmlns="http://www.w3.org/2000/svg" xmlns:cc="http://creativecommons.org/ns#" xmlns:dc="http://purl.org/dc/elements/1.1/" xmlns:rdf="http://www.w3.org/1999/02/22-rdf-syntax-ns#" xmlns:xlink="http://www.w3.org/1999/xlink">
 <metadata>
  <rdf:RDF>
   <cc:Work rdf:about="">
    <dc:format>image/svg+xml</dc:format>
    <dc:type rdf:resource="http://purl.org/dc/dcmitype/StillImage"/>
    <dc:title/>
   </cc:Work>
  </rdf:RDF>
 </metadata>
 <g transform="translate(-34.396 -37.141)" display="none">
  <rect x="8.6935" y="10.494" width="198.82" height="123.98" fill-opacity="0" stroke-width=".26458"/>
  <rect x="34.396" y="37.141" width="146.47" height="26.08" fill="#4a9eba" stroke-width=".11097"/>
 </g>
 <g transform="translate(-34.396 -37.141)">
  <g transform="scale(1.2345 .81001)" fill="#2a8377" opacity=".434" stroke-width=".16788" aria-label="&amp;">
   <path d="m90.208 65.345q7e-3 0.06295 0.04896 0.16787 0.04896 0.09793 0.13989 0.2588 0.10492 0.15388 0.2588 0.31476 0.11191 0 0.79039-0.94428t0.76241-0.95826q0.16088-0.02098 0.28678-0.03497t0.21683-0.02098q0.11891 0.02798 0.18186 0.06995 0.06995 0.03497 0.06995 0.09093 0 0.10492-0.05596 0.2588-0.05596 0.14689-0.18886 0.33574-0.15388 0.33574-0.41268 0.79739-0.2588 0.46165-0.62952 1.0562-0.03497 0.17487-0.1329 0.41268-0.09093 0.23082-0.24481 0.55258-0.1329 0.21683-0.20984 0.37771-0.06995 0.15388-0.06995 0.24481 0 0.05596 0.02798 0.20284 0.03497 0.14689 0.02098 0.20284-7e-3 0.22383-0.04197 0.44066 0.02098 0.14689 0.04197 0.27279-0.04896 0.25181-0.09793 0.46864 0 0.15388 0.1329 0.22383 0.1329 0.06995 0.40569 0.06995 0.09793 0 0.29378-0.03497 0.19585-0.03497 0.30077-0.03497 0.19585 0.04197 0.23782 0.04197 0.22383 0 0.76941-0.27279 0.54558-0.27279 0.59454-0.27279 0.05596 0 0.08393 0.04197 0.02798 0.04197 0.02798 0.11891 0 0.09093-0.03497 0.17487-0.02798 0.07694-0.09093 0.11891-0.06995 0.04896-0.1329 0.09792-0.06295 0.04197-0.1329 0.08394-0.11891 0.1259-0.20284 0.2588-0.11191 0.16088-0.22383 0.2588-0.10492 0.09793-0.21683 0.15388-0.30077 0.08394-0.57356 0.15388-0.14689 0.06995-0.2658 0.1259-0.08393 0.02798-0.15388 0.04896-0.06995 0.02098-0.1259 0.02098-0.47564-0.04197-0.94428-0.06995-0.04896-0.01399-0.09793 0.01399-0.04896 0.02098-0.10492 0.08394-0.06995 0.06995-0.17487 0.16088-0.19585 0.39869-0.31476 0.62952t-0.18186 0.29377q-0.14689 0.18886-0.3917 0.27978t-0.58755 0.09093q-0.13989 0-0.21683-0.11191-0.06995-0.11191-0.06995-0.34274 0-0.04896 0.01399-0.10492t0.03497-0.1259q0.02798-0.06995 0.06995-0.20984 0-0.09792 0-0.27279 7e-3 -0.17487 0.16088-0.55957 0.05596-0.18186 0.08394-0.32175 0.03497-0.14689 0.02098-0.2588l-0.07694-0.14689q-0.82537-0.67148-1.3779-1.5738-0.55258-0.9093-0.84635-2.0564-0.04896-0.23782-0.11191-0.51061 0.04896-0.74143 0.08394-1.1611 0.03497-0.42667 0.05596-0.53859 0.1329-0.51061 0.41268-0.76242 0.27978-0.2588 0.69946-0.2588 0.03497 0 0.20984 0.03497 0.17487 0.03497 0.48962 0.08394l0.94428 0.72045q0.15388 0.16088 0.33574 0.42667 0.18886 0.2658 0.42667 0.62252zm-0.20984 2.3782q-0.04197 0-0.10492 0.03497-0.05596 0.03497-0.10492 0.10492-0.06995 0.09093-0.1259 0.14689-0.05596 0.04896-0.08393 0.06295l-0.04896-0.04896q0.02798-0.18186 0.04896-0.34274 7e-3 -0.04197 0.25181-0.3847 0.24481-0.34274 0.24481-0.48962-0.03497-0.1259-0.09093-0.23782-0.02798-0.04896-0.04197-0.17487-7e-3 -0.1329-0.02798-0.32875 0-0.03497-0.04197-0.09093-0.04197-0.06295-0.1329-0.14689l-0.36372-0.6435q-0.27978-0.51061-0.60154-0.76241-0.32175-0.2588-0.67148-0.2588-0.18186 0-0.32175 0.10492t-0.23082 0.32175q-0.06995 0.15388-0.09792 0.34274-0.02798 0.18186-0.02798 0.40569 0 0.20284 0.09093 0.61553 0.09793 0.40569 0.09793 0.60853-0.02098 0.1259-0.04197 0.20984 0.16088 0.49662 0.43367 0.95826 0.27978 0.46165 0.67148 0.88132 0.25181 0.27978 0.41268 0.41968 0.16787 0.13989 0.23782 0.13989 0.04896 0 0.10492-0.06295 0.06295-0.06295 0.1259-0.18186 0.04896-0.10492 0.09792-0.18886 0.04896-0.09093 0.09093-0.19585 0.02098-0.09093 0.04896-0.18186 0.03497-0.09792 0.09093-0.20984 0.08394-0.13989 0.1329-0.23782 0.04896-0.09793 0.05596-0.14689z" fill="#2a8377" stroke-width=".16788"/>
  </g>
  <g stroke-width=".26458" aria-label="Essential Massage  Wellness">
   <g fill="#4d5f77">
    <path d="m46.742 46.955q0.40922 0.127 0.62089 0.33867-0.26811 0.83256-0.43744 2.1026-1.1007-0.02822-3.0198-0.02822-2.5964 0-3.6548 0.04233 0-0.40922 0.07056-0.60678 0.39511-0.02822 0.59267-0.14111 0.21167-0.11289 0.29633-0.39511 0.08467-0.28222 0.08467-0.84667v-5.7997q0-0.70556-0.21167-0.94544-0.19756-0.254-0.762-0.28222-0.07056-0.19756-0.07056-0.60678 0.83256 0.04233 2.3707 0.04233 2.5682 0 3.9652-0.04233 0.14111 1.5522 0.29633 2.2296-0.21167 0.16933-0.635 0.16933-0.07055-0.79022-0.57856-1.2841-0.49389-0.508-1.7357-0.508h-1.3123v3.8664h0.889q0.889 0 1.2136-0.22578 0.33867-0.23989 0.35278-0.91722 0.33867-0.09878 0.67733-0.09878-0.02822 0.47978-0.02822 1.5381 0 1.1571 0.02822 1.6369-0.381 0-0.64911-0.07055-0.05644-0.73378-0.39511-0.98778-0.32456-0.26811-1.1994-0.26811h-0.889v2.5541q0 0.53622 0.09878 0.81844 0.09878 0.26811 0.36689 0.381 0.28222 0.11289 0.81844 0.11289h0.08467q0.97367 0 1.4958-0.19756 0.52211-0.19756 0.762-0.55033 0.254-0.35278 0.49389-1.0301z"/>
    <path d="m51.957 49.467q-0.77611 0-1.4111-0.15522-0.62089-0.15522-1.3547-0.46567 0.15522-0.94544 0.11289-1.6369 0.31044-0.09878 0.762-0.09878 0.02822 0.87489 0.55033 1.27 0.53622 0.39511 1.4958 0.39511 0.81844 0 1.2841-0.254 0.47978-0.254 0.47978-0.67733 0-0.29633-0.23989-0.508-0.22578-0.22578-0.56444-0.36689-0.32456-0.15522-0.95956-0.381-0.87489-0.29633-1.4111-0.55033-0.52211-0.26811-0.91722-0.71967-0.381-0.46567-0.381-1.1571 0-0.94544 0.70556-1.4393 0.71967-0.49389 1.9614-0.49389 0.66322 0 1.3123 0.127 0.66322 0.127 1.0301 0.32456-0.01411 0.15522-0.01411 0.47978 0 0.635 0.08467 1.0019-0.29633 0.15522-0.77611 0.15522-0.19756-0.80433-0.64911-1.1148-0.43744-0.32456-1.0866-0.32456-0.62089 0-1.016 0.21167-0.381 0.21167-0.381 0.62089 0 0.46567 0.45156 0.74789t1.4111 0.62089q0.81844 0.28222 1.3406 0.53622t0.889 0.69144q0.36689 0.42333 0.36689 1.0724 0 0.93133-0.762 1.5099-0.762 0.57856-2.3142 0.57856z"/>
    <path d="m60.06 49.467q-0.77611 0-1.4111-0.15522-0.62089-0.15522-1.3547-0.46567 0.15522-0.94544 0.11289-1.6369 0.31044-0.09878 0.762-0.09878 0.02822 0.87489 0.55033 1.27 0.53622 0.39511 1.4958 0.39511 0.81844 0 1.2841-0.254 0.47978-0.254 0.47978-0.67733 0-0.29633-0.23989-0.508-0.22578-0.22578-0.56444-0.36689-0.32456-0.15522-0.95956-0.381-0.87489-0.29633-1.4111-0.55033-0.52211-0.26811-0.91722-0.71967-0.381-0.46567-0.381-1.1571 0-0.94544 0.70556-1.4393 0.71967-0.49389 1.9614-0.49389 0.66322 0 1.3123 0.127 0.66322 0.127 1.0301 0.32456-0.01411 0.15522-0.01411 0.47978 0 0.635 0.08467 1.0019-0.29633 0.15522-0.77611 0.15522-0.19756-0.80433-0.64911-1.1148-0.43744-0.32456-1.0866-0.32456-0.62089 0-1.016 0.21167-0.381 0.21167-0.381 0.62089 0 0.46567 0.45156 0.74789t1.4111 0.62089q0.81844 0.28222 1.3406 0.53622t0.889 0.69144q0.36689 0.42333 0.36689 1.0724 0 0.93133-0.762 1.5099-0.762 0.57856-2.3142 0.57856z"/>
    <path d="m70.985 47.364q0.381 0.07056 0.62089 0.31044-0.254 0.66322-0.381 1.7074l-2.7234-0.01411q-2.032 0-3.2738 0.02822 0-0.43744 0.07055-0.635 0.35278-0.02822 0.52211-0.11289 0.18344-0.08467 0.254-0.31044 0.07056-0.22578 0.07056-0.67733v-3.7112q0-0.40922-0.08467-0.62089-0.07055-0.21167-0.254-0.29633-0.16933-0.08467-0.508-0.11289-0.07055-0.21167-0.07055-0.635 1.016 0.02822 2.2154 0.02822 2.5964 0 3.4713-0.02822 0.15522 1.3264 0.26811 1.7498-0.23989 0.15522-0.635 0.15522-0.05644-0.59267-0.49389-0.93133-0.42333-0.33867-1.5099-0.33867h-1.1007v2.5964h0.70556q0.74789 0 1.0301-0.16933 0.29633-0.16933 0.31044-0.62089 0.31044-0.09878 0.64911-0.09878-0.02822 0.35278-0.02822 1.1853 0 0.90311 0.02822 1.2277-0.381 0-0.62089-0.08467-0.04233-0.46567-0.33867-0.635-0.28222-0.16933-1.0301-0.16933h-0.70556v1.4817q0 0.45156 0.08467 0.69144 0.09878 0.22578 0.32456 0.32456 0.23989 0.08467 0.70556 0.08467h0.08467q0.81844 0 1.2559-0.14111 0.45156-0.14111 0.66322-0.40922 0.22578-0.28222 0.42333-0.81844z"/>
    <path d="m80.395 42.312q0.53622 0 1.1853-0.02822 0 0.42333-0.05644 0.635-0.29633 0.02822-0.45156 0.15522-0.15522 0.127-0.22578 0.43744-0.05644 0.29633-0.05644 0.889v4.9812q-0.18344 0.08467-0.57856 0.08467l-5.0659-5.6021v3.3867q0 0.60678 0.07056 0.91722 0.08467 0.31044 0.26811 0.43744t0.53622 0.15522q0.07056 0.22578 0.07056 0.635-0.762-0.02822-1.2559-0.02822-0.66322 0-1.2841 0.02822 0-0.40922 0.07055-0.635 0.35278-0.02822 0.52211-0.15522 0.18344-0.127 0.254-0.43744 0.08467-0.31044 0.08467-0.91722v-4.1204l-0.01411-0.01411q-0.09878-0.09878-0.254-0.127-0.15522-0.04233-0.59267-0.07056-0.07055-0.254-0.07055-0.635 0.508 0.02822 0.98778 0.02822 0.43744 0 0.889-0.02822l4.699 5.2634v-3.1468q0-0.59267-0.08467-0.889-0.07055-0.31044-0.254-0.43744-0.18344-0.127-0.55033-0.15522-0.05644-0.32456-0.05644-0.635 0.70556 0.02822 1.2136 0.02822z"/>
    <path d="m89.986 42.284q-0.04233 0.762 0.09878 1.8344-0.29633 0.127-0.69144 0.127-0.02822-0.67733-0.36689-1.0019-0.32456-0.32456-1.0301-0.32456h-0.62089v4.8401q0 0.43744 0.07055 0.64911 0.08467 0.19756 0.28222 0.28222 0.21167 0.08467 0.635 0.11289 0.07056 0.16933 0.07056 0.59267-1.0442-0.02822-1.7074-0.02822-0.81844 0-1.7498 0.02822 0-0.42333 0.07055-0.59267 0.42333-0.02822 0.635-0.11289 0.22578-0.08467 0.31044-0.29633 0.08467-0.21167 0.08467-0.635v-4.8401h-0.57856q-0.56444 0-0.87489 0.15522-0.29633 0.14111-0.43744 0.40922t-0.23989 0.762q-0.45156 0-0.66322-0.127 0.21167-0.95956 0.21167-1.8344 0.73378 0.02822 3.2314 0.02822 2.54 0 3.2597-0.02822z"/>
    <path d="m91.796 49.396q0-0.43744 0.07055-0.635 0.35278-0.02822 0.52211-0.11289 0.18344-0.08467 0.254-0.29633 0.07056-0.21167 0.07056-0.635v-3.7677q0-0.40922-0.07056-0.62089-0.07055-0.21167-0.254-0.29633-0.16933-0.08467-0.52211-0.11289-0.07055-0.21167-0.07055-0.635 0.90311 0.02822 1.5804 0.02822 0.56444 0 1.5522-0.02822 0 0.43744-0.05644 0.635-0.508 0.02822-0.69144 0.22578-0.16933 0.19756-0.16933 0.80433v3.7677q0 0.60678 0.16933 0.81844 0.18344 0.19756 0.69144 0.22578 0.05644 0.21167 0.05644 0.635-0.95956-0.02822-1.5522-0.02822-0.70556 0-1.5804 0.02822z"/>
    <path d="m104.26 48.761q0.0706 0.21167 0.0706 0.635-0.56445-0.02822-1.4534-0.02822-0.93134 0-1.4958 0.02822 0-0.43744 0.0847-0.635 0.32456-0.04233 0.45156-0.11289 0.14111-0.08467 0.14111-0.23989 0-0.127-0.14111-0.43744l-0.28222-0.60678q-2.032 0-3.2032 0.07056l-0.15522 0.36689q-0.14111 0.32456-0.14111 0.508 0 0.39511 0.57856 0.45156 0.08467 0.254 0.08467 0.635-0.53622-0.02822-1.1712-0.02822-0.55033 0-1.0019 0.02822 0-0.33867 0.08467-0.635 0.31044-0.05644 0.47978-0.254 0.16933-0.21167 0.45156-0.83256l2.4271-5.3763q0.26811-0.05644 0.56445-0.05644l2.5965 5.3904q0.31045 0.64911 0.52211 0.87489 0.22578 0.22578 0.508 0.254zm-2.9069-1.9756-0.84667-1.778q-0.36689-0.74789-0.508-1.1853-0.11289 0.35278-0.28222 0.70556-0.15522 0.33867-0.19756 0.42333l-0.80433 1.8344z"/>
    <path d="m109.46 48.733q0.66323 0 1.0442-0.127 0.39511-0.14111 0.62089-0.42333 0.23988-0.29633 0.45155-0.81844 0.381 0.07056 0.62089 0.31044-0.254 0.66322-0.381 1.7074l-2.4977-0.01411q-2.032 0-3.2738 0.02822 0-0.43744 0.0705-0.635 0.33867-0.02822 0.52211-0.11289 0.18345-0.08467 0.254-0.31044 0.0847-0.22578 0.0847-0.67733v-3.7112q0-0.40922-0.0847-0.62089-0.0705-0.21167-0.254-0.29633-0.16933-0.08467-0.52211-0.11289-0.0564-0.22578-0.0564-0.635 1.016 0.02822 1.5663 0.02822 0.57856 0 1.5663-0.02822 0 0.42333-0.0705 0.635-0.49389 0.02822-0.67734 0.23989-0.16933 0.19756-0.16933 0.80433v3.6689q0 0.45156 0.0847 0.69144 0.0847 0.22578 0.31044 0.32456 0.23989 0.08467 0.70556 0.08467z"/>
    <path d="m128.6 48.789q0.0706 0.23989 0.0706 0.62089-0.64911-0.04233-1.6933-0.04233-1.0019 0-1.7216 0.04233 0-0.33867 0.0847-0.60678 0.53622-0.05644 0.71966-0.23989 0.18345-0.18344 0.18345-0.67733 0-0.28222-0.0423-0.70556l-0.508-4.8401-2.921 7.0556q-0.23988 0.09878-0.57855 0.09878l-3.2879-7.1402-0.45156 4.5297q-0.0423 0.42333-0.0423 0.73378 0 0.64911 0.21167 0.90311 0.22578 0.23989 0.74789 0.28222 0.0705 0.23989 0.0705 0.60678-0.67733-0.04233-1.5099-0.04233-0.83255 0-1.4111 0.04233 0-0.36689 0.0706-0.60678 0.39511-0.04233 0.60678-0.19756 0.21166-0.15522 0.32455-0.56444 0.127-0.42333 0.21167-1.2841l0.45155-5.0236q0.0141-0.127 0.0141-0.33867 0-0.55033-0.22577-0.77611-0.22578-0.22578-0.73378-0.22578-0.0706-0.22578-0.0706-0.60678 0.42334 0.04233 1.0724 0.04233 0.52211 0 1.0724-0.04233l3.5278 7.8034 3.0762-7.8034q0.47978 0.04233 1.1007 0.04233 0.508 0 1.0724-0.04233 0 0.33867-0.0705 0.60678-0.47978 0-0.73378 0.23989-0.23989 0.23989-0.23989 0.83256 0 0.22578 0.0141 0.35278l0.508 5.1788q0.0706 0.70556 0.18345 1.0866 0.11289 0.36689 0.31044 0.52211 0.19756 0.15522 0.53622 0.18344z"/>
    <path d="m137.44 48.761q0.0705 0.21167 0.0705 0.635-0.56444-0.02822-1.4534-0.02822-0.93133 0-1.4958 0.02822 0-0.43744 0.0847-0.635 0.32455-0.04233 0.45155-0.11289 0.14112-0.08467 0.14112-0.23989 0-0.127-0.14112-0.43744l-0.28222-0.60678q-2.032 0-3.2032 0.07056l-0.15522 0.36689q-0.14111 0.32456-0.14111 0.508 0 0.39511 0.57855 0.45156 0.0847 0.254 0.0847 0.635-0.53622-0.02822-1.1712-0.02822-0.55034 0-1.0019 0.02822 0-0.33867 0.0847-0.635 0.31045-0.05644 0.47978-0.254 0.16934-0.21167 0.45156-0.83256l2.4271-5.3763q0.26811-0.05644 0.56444-0.05644l2.5964 5.3904q0.31044 0.64911 0.52211 0.87489 0.22578 0.22578 0.508 0.254zm-2.9069-1.9756-0.84667-1.778q-0.36689-0.74789-0.508-1.1853-0.11289 0.35278-0.28222 0.70556-0.15522 0.33867-0.19755 0.42333l-0.80434 1.8344z"/>
    <path d="m142.17 49.467q-0.77611 0-1.4111-0.15522-0.62089-0.15522-1.3547-0.46567 0.15522-0.94544 0.11288-1.6369 0.31045-0.09878 0.762-0.09878 0.0282 0.87489 0.55034 1.27 0.53622 0.39511 1.4958 0.39511 0.81844 0 1.2841-0.254 0.47977-0.254 0.47977-0.67733 0-0.29633-0.23988-0.508-0.22578-0.22578-0.56445-0.36689-0.32455-0.15522-0.95955-0.381-0.87489-0.29633-1.4111-0.55033-0.52211-0.26811-0.91722-0.71967-0.381-0.46567-0.381-1.1571 0-0.94544 0.70556-1.4393 0.71966-0.49389 1.9614-0.49389 0.66322 0 1.3123 0.127 0.66322 0.127 1.0301 0.32456-0.0141 0.15522-0.0141 0.47978 0 0.635 0.0847 1.0019-0.29633 0.15522-0.77611 0.15522-0.19755-0.80433-0.64911-1.1148-0.43744-0.32456-1.0866-0.32456-0.62088 0-1.016 0.21167-0.381 0.21167-0.381 0.62089 0 0.46567 0.45156 0.74789t1.4111 0.62089q0.81845 0.28222 1.3406 0.53622t0.889 0.69144q0.36689 0.42333 0.36689 1.0724 0 0.93133-0.762 1.5099-0.762 0.57856-2.3142 0.57856z"/>
    <path d="m150.27 49.467q-0.77611 0-1.4111-0.15522-0.62089-0.15522-1.3547-0.46567 0.15522-0.94544 0.11289-1.6369 0.31045-0.09878 0.762-0.09878 0.0282 0.87489 0.55033 1.27 0.53623 0.39511 1.4958 0.39511 0.81845 0 1.2841-0.254 0.47978-0.254 0.47978-0.67733 0-0.29633-0.23989-0.508-0.22578-0.22578-0.56444-0.36689-0.32456-0.15522-0.95956-0.381-0.87489-0.29633-1.4111-0.55033-0.52211-0.26811-0.91722-0.71967-0.381-0.46567-0.381-1.1571 0-0.94544 0.70555-1.4393 0.71967-0.49389 1.9614-0.49389 0.66322 0 1.3123 0.127 0.66322 0.127 1.0301 0.32456-0.0141 0.15522-0.0141 0.47978 0 0.635 0.0847 1.0019-0.29633 0.15522-0.77611 0.15522-0.19756-0.80433-0.64911-1.1148-0.43745-0.32456-1.0866-0.32456-0.62089 0-1.016 0.21167-0.381 0.21167-0.381 0.62089 0 0.46567 0.45156 0.74789 0.45155 0.28222 1.4111 0.62089 0.81844 0.28222 1.3406 0.53622t0.889 0.69144q0.36689 0.42333 0.36689 1.0724 0 0.93133-0.762 1.5099-0.762 0.57856-2.3142 0.57856z"/>
    <path d="m162.63 48.761q0.0705 0.21167 0.0705 0.635-0.56444-0.02822-1.4534-0.02822-0.93134 0-1.4958 0.02822 0-0.43744 0.0847-0.635 0.32455-0.04233 0.45155-0.11289 0.14111-0.08467 0.14111-0.23989 0-0.127-0.14111-0.43744l-0.28222-0.60678q-2.032 0-3.2032 0.07056l-0.15523 0.36689q-0.14111 0.32456-0.14111 0.508 0 0.39511 0.57856 0.45156 0.0847 0.254 0.0847 0.635-0.53623-0.02822-1.1712-0.02822-0.55033 0-1.0019 0.02822 0-0.33867 0.0847-0.635 0.31045-0.05644 0.47978-0.254 0.16933-0.21167 0.45155-0.83256l2.4271-5.3763q0.26811-0.05644 0.56444-0.05644l2.5964 5.3904q0.31045 0.64911 0.52212 0.87489 0.22577 0.22578 0.508 0.254zm-2.9069-1.9756-0.84667-1.778q-0.36689-0.74789-0.508-1.1853-0.11289 0.35278-0.28222 0.70556-0.15522 0.33867-0.19756 0.42333l-0.80433 1.8344z"/>
    <path d="m167.96 49.467q-1.2136 0-2.1449-0.46567-0.93134-0.46567-1.4534-1.2982-0.508-0.84667-0.508-1.9332 0-1.1289 0.60678-1.9191 0.60678-0.80433 1.5946-1.2136 0.98778-0.40922 2.1167-0.40922 0.86078 0 1.6369 0.14111 0.79022 0.127 1.3264 0.36689-0.127 0.53622-0.127 1.6228-0.254 0.11289-0.71966 0.11289-0.0423-0.889-0.57856-1.2559-0.53622-0.36689-1.4534-0.36689-0.97367 0-1.651 0.36689-0.66322 0.36689-0.98778 0.98778-0.32456 0.60678-0.32456 1.3264 0 1.4393 0.74789 2.3424 0.762 0.90311 2.159 0.90311 0.43745 0 0.67734-0.01411t0.49389-0.08467q0.22577-0.05645 0.32455-0.21167 0.0988-0.16933 0.0988-0.55033v-0.43744q0-0.40922-0.0706-0.57856-0.0705-0.18344-0.28222-0.23989-0.21167-0.07056-0.69144-0.08467-0.0847-0.254-0.0847-0.64911 0.32456 0.02822 1.5381 0.02822 1.1994 0 1.4817-0.02822 0 0.39511-0.0706 0.64911-0.26811 0.01411-0.381 0.08467-0.11289 0.05644-0.15522 0.22578-0.0423 0.15522-0.0423 0.508v0.35278q0 0.32456 0.0282 0.52211 0.0423 0.18344 0.14111 0.39511-0.56444 0.36689-1.4111 0.59267-0.83256 0.21167-1.8344 0.21167z"/>
    <path d="m179.72 47.364q0.381 0.07056 0.62089 0.31044-0.254 0.66322-0.381 1.7074l-2.7234-0.01411q-2.032 0-3.2738 0.02822 0-0.43744 0.0706-0.635 0.35278-0.02822 0.52211-0.11289 0.18345-0.08467 0.254-0.31044 0.0706-0.22578 0.0706-0.67733v-3.7112q0-0.40922-0.0847-0.62089-0.0706-0.21167-0.254-0.29633-0.16933-0.08467-0.508-0.11289-0.0706-0.21167-0.0706-0.635 1.016 0.02822 2.2154 0.02822 2.5964 0 3.4713-0.02822 0.15522 1.3264 0.26811 1.7498-0.23989 0.15522-0.635 0.15522-0.0564-0.59267-0.49389-0.93133-0.42333-0.33867-1.5099-0.33867h-1.1007v2.5964h0.70555q0.74789 0 1.0301-0.16933 0.29633-0.16933 0.31044-0.62089 0.31044-0.09878 0.64911-0.09878-0.0282 0.35278-0.0282 1.1853 0 0.90311 0.0282 1.2277-0.381 0-0.62089-0.08467-0.0423-0.46567-0.33866-0.635-0.28223-0.16933-1.0301-0.16933h-0.70555v1.4817q0 0.45156 0.0847 0.69144 0.0988 0.22578 0.32455 0.32456 0.23989 0.08467 0.70556 0.08467h0.0847q0.81845 0 1.2559-0.14111 0.45156-0.14111 0.66322-0.40922 0.22578-0.28222 0.42334-0.81844z"/>
   </g>
   <g fill="#9eb0c5">
    <path d="m127.49 50.57q0.70238 0 1.2132-0.03831 0 0.29372-0.0894 0.54913-0.22987 0.05108-0.38311 0.2171-0.15325 0.16602-0.3065 0.53636-0.15324 0.35758-0.38311 1.0983l-1.9922 6.3087q-0.20433 0.07662-0.51082 0.07662-1.2771-3.6268-2.4903-6.7812l-2.2476 6.7045q-0.20433 0.07662-0.54913 0.07662-1.1366-3.7162-2.1454-6.7684-0.24264-0.71515-0.38312-0.9961-0.12771-0.28095-0.25541-0.35758-0.11494-0.08939-0.37035-0.11494-0.0639-0.20433-0.0639-0.54913 0.61299 0.03831 1.4431 0.03831 0.84286 0 1.5452-0.03831 0 0.29372-0.0639 0.54913-0.45974 0.02554-0.63853 0.11494-0.17879 0.07662-0.17879 0.31926 0 0.25541 0.2171 0.88117 0.94502 2.9372 1.4942 4.7634l2.2476-6.6279q0.16602-0.06385 0.56191-0.06385 1.1494 3.0011 2.4392 6.7173l1.3537-4.2909q0.20433-0.68961 0.20433-1.0216 0-0.37035-0.20433-0.54913-0.19156-0.19156-0.61298-0.24264-0.0894-0.22987-0.0894-0.54913 0.53637 0.03831 1.2388 0.03831z"/>
    <path d="m135.21 57.389q0.34481 0.06385 0.56191 0.28095-0.22987 0.60022-0.34481 1.5452l-2.4647-0.01277q-1.839 0-2.9628 0.02554 0-0.39589 0.0639-0.57468 0.31926-0.02554 0.47251-0.10216 0.16602-0.07662 0.22987-0.28095 0.0639-0.20433 0.0639-0.61299v-3.3587q0-0.37035-0.0766-0.5619-0.0639-0.19156-0.22987-0.26818-0.15325-0.07662-0.45974-0.10216-0.0639-0.19156-0.0639-0.57468 0.91948 0.02554 2.005 0.02554 2.3498 0 3.1416-0.02554 0.14048 1.2004 0.24264 1.5835-0.2171 0.14048-0.57467 0.14048-0.0511-0.53636-0.44697-0.84286-0.38312-0.30649-1.3664-0.30649h-0.99611v2.3498h0.63853q0.67684 0 0.93225-0.15325 0.26818-0.15325 0.28096-0.5619 0.28095-0.08939 0.58744-0.08939-0.0255 0.31926-0.0255 1.0727 0 0.81732 0.0255 1.111-0.3448 0-0.5619-0.07662-0.0383-0.42143-0.3065-0.57468-0.25541-0.15325-0.93225-0.15325h-0.63853v1.3409q0 0.40866 0.0766 0.62576 0.0894 0.20433 0.29372 0.29372 0.2171 0.07662 0.63853 0.07662h0.0766q0.74069 0 1.1366-0.12771 0.40866-0.1277 0.60022-0.37035 0.20433-0.25541 0.38311-0.74069z"/>
    <path d="m140.63 58.628q0.60022 0 0.94503-0.11494 0.35757-0.12771 0.5619-0.38312 0.2171-0.26818 0.40866-0.74069 0.3448 0.06385 0.5619 0.28095-0.22987 0.60022-0.3448 1.5452l-2.2604-0.01277q-1.839 0-2.9628 0.02554 0-0.39589 0.0639-0.57468 0.3065-0.02554 0.47251-0.10216 0.16602-0.07662 0.22987-0.28095 0.0766-0.20433 0.0766-0.61299v-3.3587q0-0.37035-0.0766-0.5619-0.0639-0.19156-0.22987-0.26818-0.15324-0.07662-0.47251-0.10216-0.0511-0.20433-0.0511-0.57468 0.91948 0.02554 1.4175 0.02554 0.5236 0 1.4175-0.02554 0 0.38312-0.0639 0.57468-0.44697 0.02554-0.61299 0.2171-0.15324 0.17879-0.15324 0.72792v3.3203q0 0.40866 0.0766 0.62576 0.0766 0.20433 0.28095 0.29372 0.2171 0.07662 0.63853 0.07662z"/>
    <path d="m147.69 58.628q0.60022 0 0.94502-0.11494 0.35758-0.12771 0.56191-0.38312 0.21709-0.26818 0.40865-0.74069 0.34481 0.06385 0.56191 0.28095-0.22987 0.60022-0.34481 1.5452l-2.2604-0.01277q-1.839 0-2.9628 0.02554 0-0.39589 0.0639-0.57468 0.30649-0.02554 0.47251-0.10216t0.22987-0.28095q0.0766-0.20433 0.0766-0.61299v-3.3587q0-0.37035-0.0766-0.5619-0.0639-0.19156-0.22987-0.26818-0.15325-0.07662-0.47251-0.10216-0.0511-0.20433-0.0511-0.57468 0.91948 0.02554 1.4175 0.02554 0.52359 0 1.4175-0.02554 0 0.38312-0.0639 0.57468-0.44697 0.02554-0.61299 0.2171-0.15325 0.17879-0.15325 0.72792v3.3203q0 0.40866 0.0766 0.62576 0.0766 0.20433 0.28095 0.29372 0.2171 0.07662 0.63853 0.07662z"/>
    <path d="m157.85 52.817q0.48528 0 1.0727-0.02554 0 0.38312-0.0511 0.57468-0.26818 0.02554-0.40865 0.14048-0.14048 0.11494-0.20433 0.39589-0.0511 0.26818-0.0511 0.80454v4.508q-0.16601 0.07662-0.52359 0.07662l-4.5846-5.0699v3.0649q0 0.54913 0.0639 0.83009 0.0766 0.28095 0.24265 0.39589 0.16601 0.11494 0.48528 0.14048 0.0639 0.20433 0.0639 0.57468-0.68961-0.02554-1.1366-0.02554-0.60022 0-1.1621 0.02554 0-0.37035 0.0639-0.57468 0.31927-0.02554 0.47251-0.14048 0.16602-0.11494 0.22987-0.39589 0.0766-0.28095 0.0766-0.83009v-3.729l-0.0128-0.01277q-0.0894-0.08939-0.22987-0.11494-0.14048-0.03831-0.53637-0.06385-0.0639-0.22987-0.0639-0.57468 0.45974 0.02554 0.89394 0.02554 0.39589 0 0.80454-0.02554l4.2526 4.7634v-2.8478q0-0.53636-0.0766-0.80454-0.0639-0.28095-0.22987-0.39589-0.16601-0.11494-0.49805-0.14048-0.0511-0.29372-0.0511-0.57468 0.63853 0.02554 1.0983 0.02554z"/>
    <path d="m166.07 57.389q0.3448 0.06385 0.5619 0.28095-0.22987 0.60022-0.3448 1.5452l-2.4647-0.01277q-1.839 0-2.9628 0.02554 0-0.39589 0.0639-0.57468 0.31927-0.02554 0.47251-0.10216 0.16602-0.07662 0.22987-0.28095 0.0639-0.20433 0.0639-0.61299v-3.3587q0-0.37035-0.0766-0.5619-0.0639-0.19156-0.22987-0.26818-0.15324-0.07662-0.45974-0.10216-0.0639-0.19156-0.0639-0.57468 0.91948 0.02554 2.005 0.02554 2.3498 0 3.1416-0.02554 0.14048 1.2004 0.24264 1.5835-0.21709 0.14048-0.57467 0.14048-0.0511-0.53636-0.44697-0.84286-0.38312-0.30649-1.3664-0.30649h-0.9961v2.3498h0.63853q0.67683 0 0.93225-0.15325 0.26818-0.15325 0.28095-0.5619 0.28095-0.08939 0.58744-0.08939-0.0255 0.31926-0.0255 1.0727 0 0.81732 0.0255 1.111-0.3448 0-0.5619-0.07662-0.0383-0.42143-0.30649-0.57468-0.25542-0.15325-0.93225-0.15325h-0.63853v1.3409q0 0.40866 0.0766 0.62576 0.0894 0.20433 0.29372 0.29372 0.2171 0.07662 0.63853 0.07662h0.0766q0.7407 0 1.1366-0.12771 0.40866-0.1277 0.60022-0.37035 0.20433-0.25541 0.38312-0.74069z"/>
    <path d="m170.52 59.292q-0.70238 0-1.2771-0.14048-0.5619-0.14048-1.226-0.42143 0.14047-0.85563 0.10216-1.4814 0.28095-0.08939 0.68961-0.08939 0.0255 0.79177 0.49805 1.1494 0.48528 0.35758 1.3537 0.35758 0.74069 0 1.1621-0.22987 0.4342-0.22987 0.4342-0.61299 0-0.26818-0.2171-0.45974-0.20433-0.20433-0.51082-0.33204-0.29372-0.14048-0.8684-0.3448-0.79177-0.26818-1.277-0.49805-0.47251-0.24264-0.83009-0.6513-0.3448-0.42143-0.3448-1.0472 0-0.85563 0.63852-1.3026 0.6513-0.44697 1.7751-0.44697 0.60022 0 1.1877 0.11494 0.60022 0.11494 0.93225 0.29372-0.0128 0.14048-0.0128 0.4342 0 0.57468 0.0766 0.90671-0.26819 0.14048-0.70238 0.14048-0.17879-0.72792-0.58745-1.0089-0.39589-0.29372-0.98333-0.29372-0.56191 0-0.91948 0.19156-0.34481 0.19156-0.34481 0.5619 0 0.42143 0.40866 0.67684t1.2771 0.5619q0.74069 0.25541 1.2132 0.48528t0.80454 0.62576q0.33204 0.38312 0.33204 0.97056 0 0.84286-0.68961 1.3664t-2.0944 0.52359z"/>
    <path d="m177.32 59.292q-0.70238 0-1.2771-0.14048-0.5619-0.14048-1.226-0.42143 0.14048-0.85563 0.10216-1.4814 0.28096-0.08939 0.68961-0.08939 0.0255 0.79177 0.49806 1.1494 0.48528 0.35758 1.3537 0.35758 0.7407 0 1.1621-0.22987 0.4342-0.22987 0.4342-0.61299 0-0.26818-0.2171-0.45974-0.20432-0.20433-0.51082-0.33204-0.29372-0.14048-0.8684-0.3448-0.79177-0.26818-1.277-0.49805-0.47251-0.24264-0.83009-0.6513-0.3448-0.42143-0.3448-1.0472 0-0.85563 0.63853-1.3026 0.65129-0.44697 1.7751-0.44697 0.60022 0 1.1877 0.11494 0.60022 0.11494 0.93225 0.29372-0.0128 0.14048-0.0128 0.4342 0 0.57468 0.0766 0.90671-0.26818 0.14048-0.70238 0.14048-0.17879-0.72792-0.58745-1.0089-0.39589-0.29372-0.98333-0.29372-0.56191 0-0.91948 0.19156-0.34481 0.19156-0.34481 0.5619 0 0.42143 0.40866 0.67684t1.2771 0.5619q0.74069 0.25541 1.2132 0.48528t0.80454 0.62576q0.33204 0.38312 0.33204 0.97056 0 0.84286-0.68961 1.3664t-2.0944 0.52359z"/>
   </g>
  </g>
 </g>
</svg>
